# xmcd
#
# Track frame offsets: 
#        150
#        14189
#        26296
#        38946
#        50803
#        63197
#        74900
#        85712
#        96847
#        109018
#        120551
#        132217
#        143195
#        155576
#        167397
#        180181
#        191428
#        203580
#        215776
#        228231
#        239788
#        250780
#        262755
#        274874
#        287574
#        300273
#
# Disc length: 4167 seconds
#
# Revision: 0
# Processed by: cddbd v1.5.2PL0 Copyright (c) Steve Scherf et al.
# Submitted via: ExactAudioCopy v0.99pb4
#
DISCID=6e10451a
DTITLE=Jimmy Witherspoon - Urban Blues Singing Legend
DYEAR=2006
DGENRE=Blues
TTITLE0=Wee Baby Blues
TTITLE1=Six-Foot Two Blues
TTITLE2=How You Gonna Act
TTITLE3=Money Eyes Woman
TTITLE4=Spoon Calls Hootie
TTITLE5=Destruction Blues
TTITLE6=Call My Baby
TTITLE7=The New Look
TTITLE8=Big Heart
TTITLE9=Drunk Broke And Hungry
TTITLE10=Big Eyes Blues
TTITLE11=Funny Style Baby
TTITLE12=Cold Blooded Boogie
TTITLE13=Lush Head Woman
TTITLE14=Long About Dawn
TTITLE15=Miss Clawdy B
TTITLE16=Thelma Lee Blues
TTITLE17=Pinocchio Blues
TTITLE18=Your Red Wagon
TTITLE19=Sweet Lovin' Baby
TTITLE20=Geneva Blues
TTITLE21=Feelin' So Bad
TTITLE22=Same Old Blues
TTITLE23=I Love You Just The Same
TTITLE24=Jump Children
TTITLE25=Take Me Back Baby
EXTD=
EXTT0=
EXTT1=
EXTT2=
EXTT3=
EXTT4=
EXTT5=
EXTT6=
EXTT7=
EXTT8=
EXTT9=
EXTT10=
EXTT11=
EXTT12=
EXTT13=
EXTT14=
EXTT15=
EXTT16=
EXTT17=
EXTT18=
EXTT19=
EXTT20=
EXTT21=
EXTT22=
EXTT23=
EXTT24=
EXTT25=
PLAYORDER=
